<?xml version="1.0" standalone="no"?>
<!DOCTYPE svg PUBLIC "-//W3C//DTD SVG 1.1//EN" "http://www.w3.org/Graphics/SVG/1.1/DTD/svg11.dtd" >
<svg xmlns="http://www.w3.org/2000/svg">
<metadata></metadata>
<defs>
<font id="asakimbold" horiz-adv-x="1007" >
<font-face units-per-em="2048" ascent="1638" descent="-410" />
<missing-glyph horiz-adv-x="1021" />
<glyph horiz-adv-x="2048" />
<glyph horiz-adv-x="2048" />
<glyph unicode="&#xd;" horiz-adv-x="1021" />
<glyph unicode=" "  horiz-adv-x="1021" />
<glyph unicode="&#x09;" horiz-adv-x="1021" />
<glyph unicode="&#xa0;" horiz-adv-x="1021" />
<glyph unicode="!" horiz-adv-x="415" d="M82 -2h283v143h-283v-143zM82 252h283v559q0 119 -107 119h-68q-109 0 -108 -119v-559z" />
<glyph unicode="&#x22;" horiz-adv-x="817" d="M82 780h280v193q0 96 -4 108q-10 39 -47 39h-178q-33 0 -43 -39q-4 -14 -8 -108v-193zM483 780h283v193q-2 94 -6 108q-10 39 -47 39h-178q-33 0 -43 -39q-4 -14 -9 -108v-193z" />
<glyph unicode="#" horiz-adv-x="950" d="M82 137h90v-88h211v88h215v-88h211v88h90v213h-90v215h90v211h-90v90h-211v-90h-215v90h-211v-90h-90v-211h90v-215h-90v-213zM383 350v215h215v-215h-215z" />
<glyph unicode="$" horiz-adv-x="806" d="M82 92q0 -94 115 -94h165v-92h140v92h104q74 0 101 8q49 16 49 78v66q0 117 -54 167l-286 287q-10 14 -4 33q10 14 32 14h312v178q0 96 -115 97h-139v71h-140v-71h-129q-72 0 -100 -11q-51 -18 -51 -77v-90q0 -90 53 -144l287 -287q14 -18 4 -32t-33 -15h-311v-178z" />
<glyph unicode="%" horiz-adv-x="1132" d="M82 672q0 -57 39 -97q41 -39 98 -38q57 0 96 38q39 39 39 97q0 57 -39 96q-39 41 -96 41t-98 -41q-39 -39 -39 -96zM377 -8h225l193 946h-215zM809 242q0 -57 41 -97q39 -39 96 -39t96 39t39 97q0 57 -39 96q-39 41 -96 41h-14q-51 -4 -86 -43q-37 -41 -37 -94z" />
<glyph unicode="&#x26;" horiz-adv-x="1202" d="M82 246q0 -68 33 -123q63 -125 200 -125h408q90 0 156 65l57 -61h215v172l-100 119l100 117v176h-199q4 25 4 37v57q-4 72 -32 121q-63 129 -201 129h-408q-137 0 -200 -129q-33 -49 -33 -121v-57q0 -70 33 -123q10 -18 20 -35q-10 -18 -20 -41q-33 -49 -33 -121v-57z M412 178v160q0 29 24 33h158q33 0 33 -33v-160h-215zM412 586v166h215v-166q0 -33 -33 -33h-150q-33 0 -32 33z" />
<glyph unicode="'" horiz-adv-x="413" d="M82 780h280v193q0 96 -4 108q-10 39 -47 39h-178q-33 0 -43 -39q-4 -14 -8 -108v-193z" />
<glyph unicode="(" horiz-adv-x="577" d="M82 471q0 -297 194 -473h250v86q-190 115 -190 387q0 168 94 283q47 57 96 84v92h-250q-195 -158 -194 -459z" />
<glyph unicode=")" horiz-adv-x="577" d="M82 -2h248q197 176 196 473q0 301 -196 459h-248v-92q47 -27 94 -84q96 -115 96 -283q0 -272 -190 -387v-86z" />
<glyph unicode="*" horiz-adv-x="907" d="M82 322l76 -134l282 222l-47 -359h156l-51 359l282 -222l76 134l-330 135l330 137l-76 131l-282 -221l51 354h-156l47 -350l-282 217l-76 -131l330 -137z" />
<glyph unicode="+" horiz-adv-x="917" d="M82 328h262v-262h262v262h260v258h-260v262h-262v-262h-262v-258z" />
<glyph unicode="," horiz-adv-x="415" d="M82 -45q4 -98 8 -113q10 -35 45 -35h180q33 0 43 35q4 14 7 113v188h-283v-188z" />
<glyph unicode="-" horiz-adv-x="917" d="M82 328h784v262h-784v-262z" />
<glyph unicode="." horiz-adv-x="415" d="M82 -2h283v143h-283v-143z" />
<glyph unicode="/" horiz-adv-x="1003" d="M82 -2h215l655 739v189h-217l-653 -752v-176z" />
<glyph unicode="0" d="M82 250q0 -72 33 -127q63 -125 200 -125h408q137 0 201 125q29 55 32 127v430q-4 72 -32 121q-63 129 -201 129h-408q-137 0 -200 -129q-33 -49 -33 -121v-430zM412 227v469q0 29 24 33h158q33 0 33 -33v-469q0 -33 -33 -32h-150q-33 0 -32 32z" />
<glyph unicode="1" horiz-adv-x="573" d="M82 930l22 -182h58q53 0 53 -101v-649h225q72 0 72 100q10 625 8 731q-4 96 -127 101h-311z" />
<glyph unicode="2" d="M82 -2h874v176h-544v201h309q143 10 203 121q29 51 28 127v188q0 119 -106 119h-764l18 -182h480q43 0 43 -48v-147h-308q-143 -14 -200 -125q-33 -53 -33 -125v-305z" />
<glyph unicode="3" d="M82 -2h764q111 4 110 115v194q-4 72 -32 121q-6 14 -25 37q18 20 25 35q29 51 32 123v192q0 109 -110 115h-764l14 -178h484q47 0 47 -47v-152h-215v-178h215v-152q0 -45 -47 -45h-484z" />
<glyph unicode="4" horiz-adv-x="989" d="M82 471q0 -96 76 -96h473v-377h221q84 0 84 100q2 133 0 654q-8 96 -156 96h-149v-295h-187q-61 0 -61 65v312h-301v-459z" />
<glyph unicode="5" d="M82 -2h874v305q-4 72 -32 125q-57 111 -201 125h-311v147q0 47 47 48h479l18 182h-763q-111 0 -111 -115v-192q4 -72 33 -123q63 -125 200 -125h312v-201h-545v-176z" />
<glyph unicode="6" d="M82 250q0 -72 33 -123q57 -115 200 -129h406q145 14 203 129q29 51 32 123v53q-4 72 -32 125q-57 111 -203 125h-309v147q0 47 43 48h266l14 182h-434q-125 -10 -186 -129q-29 -49 -33 -121v-43v-387zM412 178v164q0 25 24 33h158q33 0 33 -33v-164h-215z" />
<glyph unicode="7" horiz-adv-x="1003" d="M82 930l14 -182h484q43 0 43 -48v-147h-269l15 -178h254v-373h329v813q0 115 -106 115h-764z" />
<glyph unicode="8" d="M82 246q0 -68 33 -123q63 -125 200 -125h408q137 0 201 125q29 55 32 123v57q-4 72 -32 121q-6 18 -25 41q18 20 25 35q29 53 32 123v57q-4 72 -32 121q-63 129 -201 129h-408q-137 0 -200 -129q-33 -49 -33 -121v-57q0 -70 33 -123q10 -18 20 -35q-10 -18 -20 -41 q-33 -49 -33 -121v-57zM412 178v160q0 29 24 33h158q33 0 33 -33v-160h-215zM412 586v166h215v-166q0 -33 -33 -33h-150q-33 0 -32 33z" />
<glyph unicode="9" d="M82 623q0 -70 33 -123q57 -115 200 -125h308v-148q0 -47 -43 -47h-261l-14 -178h416q135 0 203 125q29 51 28 123v43l4 387q-4 72 -32 121q-59 115 -203 129h-406q-143 -14 -200 -129q-33 -49 -33 -121v-57zM412 586v162h215v-162q0 -33 -33 -33h-150q-33 0 -32 33z" />
<glyph unicode=":" horiz-adv-x="415" d="M82 0h283v143h-283v-143zM82 561h280v148h-280v-148z" />
<glyph unicode=";" horiz-adv-x="415" d="M82 -45q4 -98 8 -113q10 -35 45 -35h180q33 0 43 35q4 14 7 113v188h-283v-188zM82 561h280v148h-280v-148z" />
<glyph unicode="&#x3c;" horiz-adv-x="946" d="M82 457l426 -473h387l-440 473l440 477h-369z" />
<glyph unicode="=" horiz-adv-x="917" d="M82 66h784v262h-784v-262zM82 586h784v262h-784v-262z" />
<glyph unicode="&#x3e;" horiz-adv-x="944" d="M82 -20h383l428 477l-442 473h-369l438 -473z" />
<glyph unicode="?" horiz-adv-x="806" d="M82 643h311q23 0 37 -18q10 -16 -8 -35l-115 -111q-29 -27 -28 -55v-164h280v164q0 27 29 55l114 111q53 49 54 164v71q0 70 -49 90q-29 14 -101 15h-409q-115 0 -115 -111v-176zM279 -6h280v147h-280v-147z" />
<glyph unicode="@" horiz-adv-x="1323" d="M92 489q12 -197 129 -337q201 -246 535 -226q129 0 248 4v162q-352 2 -359 2q-139 18 -248 115q-115 100 -135 237q-23 135 25 265q49 137 162 204q215 133 425 33q133 -66 191 -211q57 -147 2 -284q-53 -125 -197 -131v532h-163q-113 8 -162 -31q-119 -76 -172 -215 q-51 -143 4 -270q59 -154 254 -139q111 -10 110 -11q137 -80 320 25q106 66 162 190q49 119 30 248q-16 168 -129 303q-115 137 -274 176q-72 18 -143 19q-167 4 -310 -80q-147 -82 -225 -225q-90 -162 -80 -355zM526 543q25 80 90 125q35 27 58 22q35 0 33 -72v-243 q-133 -29 -177 18q-33 72 -4 150z" />
<glyph unicode="[" horiz-adv-x="600" d="M82 -209h467v72v71h-209v533v530h209v72v72h-467v-1350z" />
<glyph unicode="\" horiz-adv-x="1003" d="M82 737l653 -739h217v176l-655 752h-215v-189z" />
<glyph unicode="]" horiz-adv-x="600" d="M82 -66v-71v-72h467v1350h-467v-72v-72h209v-530v-533h-209z" />
<glyph unicode="^" horiz-adv-x="1083" d="M82 1217l473 -445l477 426v387l-473 -440l-477 440v-368z" />
<glyph unicode="_" horiz-adv-x="1734" d="M82 -102h1601v-207h-1601v207z" />
<glyph unicode="{" horiz-adv-x="585" d="M82 399h65q20 0 31 -18q8 -10 12 -43v-447q0 -61 39 -94q20 -14 306 -24v172q-47 0 -62 14q-23 18 -22 61v340q-2 43 -17 68q-29 29 -43 33q16 4 43 33q14 25 17 71v336q0 43 22 62q14 14 62 14v176q-285 -8 -306 -23q-39 -33 -39 -96v-452q-4 -31 -12 -43 q-10 -16 -31 -17h-65v-123z" />
<glyph unicode="|" horiz-adv-x="237" d="M82 -147v1460h104v-1460h-104z" />
<glyph unicode="}" horiz-adv-x="585" d="M82 -55v-172q281 10 301 24q39 33 43 94v447q0 33 10 43q8 14 33 18h66v123h-66q-25 0 -33 17q-10 12 -10 43v452q-4 61 -43 92q-20 18 -301 27v-176q43 0 57 -14q25 -18 25 -62v-340q4 -43 18 -67q25 -29 39 -33q-14 -4 -39 -37q-14 -20 -18 -68v-336q0 -43 -25 -61 q-14 -14 -57 -14z" />
<glyph unicode="~" horiz-adv-x="1341" d="M82 389h229l4 29q0 47 35 78q33 33 86 32q41 0 58 -10q41 -23 86 -96q90 -143 143 -191q76 -66 184 -81h54q133 2 225 92q94 94 100 225l4 37h-229v-23q0 -43 -33 -73q-35 -29 -82 -29q-72 0 -158 143q-90 145 -196 201q-70 35 -152 35q-53 0 -90 -10q-115 -29 -186 -119 q-72 -86 -78 -205z" />
<glyph unicode="&#xad;" horiz-adv-x="917" d="M82 328h784v262h-784v-262z" />
<glyph unicode="&#x2c6;" horiz-adv-x="1083" d="M82 772l477 438l473 -438v387l-477 426l-473 -444v-369z" />
<glyph unicode="&#x5be;" horiz-adv-x="917" d="M82 328h784v262h-784v-262z" />
<glyph unicode="&#x5c3;" horiz-adv-x="911" />
<glyph unicode="&#x5d0;" horiz-adv-x="1003" d="M82 737l186 -213q-100 -57 -129 -86q-39 -39 -39 -102v-334h355v172h-62v211l344 -383h215v172l-178 215q176 100 176 197v239q0 104 -104 105h-248v-176h57v-232l-354 408h-219v-193z" />
<glyph unicode="&#x5d1;" horiz-adv-x="1183" d="M82 2h1051v172h-172q4 569 4 635q0 102 -101 121h-782l22 -178h498q57 0 57 -72v-506h-577v-172z" />
<glyph unicode="&#x5d2;" horiz-adv-x="1003" d="M82 2h283v174h280v-174h307v807q0 106 -100 123h-469l20 -180h187q55 0 55 -70v-250h-471q-92 0 -92 -90v-340z" />
<glyph unicode="&#x5d3;" horiz-adv-x="1073" d="M82 930l22 -178h336q68 0 68 -76v-674h305v750h209v63q0 51 -43 82q-41 33 -90 33h-807z" />
<glyph unicode="&#x5d4;" d="M82 930l22 -178h480q68 0 67 -76v-674h305v817q0 47 -38 78q-39 33 -91 33h-745zM129 2h197q80 0 94 72q2 25 2 200v365h-293v-637z" />
<glyph unicode="&#x5d5;" horiz-adv-x="430" d="M82 2h186q80 0 101 76q10 31 10 129v723h-297v-928z" />
<glyph unicode="&#x5d6;" horiz-adv-x="858" d="M82 930l22 -178h318q-100 -57 -117 -84q-41 -43 -41 -146v-520h309v750h234v63q0 51 -43 82q-41 33 -90 33h-592z" />
<glyph unicode="&#x5d7;" horiz-adv-x="1116" d="M82 930l22 -178l125 -4v-746h287v750h182q57 0 58 -72v-678h309v807q0 102 -100 121h-883z" />
<glyph unicode="&#x5d8;" horiz-adv-x="1093" d="M82 930l18 -928h498q96 0 195 82q92 80 145 211q43 100 90 477q14 96 0 119q-18 39 -125 39h-416l5 -178q-4 -12 178 0q0 -330 -19 -402q-63 -176 -221 -176h-39l-14 756h-295z" />
<glyph unicode="&#x5d9;" horiz-adv-x="428" d="M82 299h197q66 0 86 72q8 29 12 200v359h-295v-631z" />
<glyph unicode="&#x5da;" d="M82 930l22 -178q82 0 246 -4h248q53 0 53 -101v-950h223q47 0 62 18q14 20 14 78q6 635 6 1036q-14 94 -129 101h-24h-721z" />
<glyph unicode="&#x5db;" horiz-adv-x="1015" d="M82 2h883v807q0 102 -101 121h-782l22 -178h498q57 0 57 -72v-506h-577v-172z" />
<glyph unicode="&#x5dc;" horiz-adv-x="974" d="M82 748h410q74 0 86 -5q35 -10 30 -57q-10 -72 -24 -182q-25 -147 -29 -180q-25 -131 -76 -150h-100h-100v-172h290q86 0 154 61q61 57 86 140q14 72 37 178q29 156 33 180l43 250q2 47 -33 84q-33 35 -82 35h-367l101 334h-291z" />
<glyph unicode="&#x5dd;" horiz-adv-x="1101" d="M82 930q4 -18 14 -92q10 -61 15 -99v-737h940v813q0 47 -37 82q-35 33 -82 33h-14h-836zM397 174v574h291q53 0 53 -68v-506h-344z" />
<glyph unicode="&#x5de;" horiz-adv-x="1112" d="M82 930l22 -178l125 -4v-746h287v750h182q57 0 58 -72v-506h-129v-172h434v807q0 102 -100 121h-879z" />
<glyph unicode="&#x5df;" horiz-adv-x="700" d="M82 930l22 -178q82 0 93 -4h94q53 0 53 -101v-950h221q76 0 76 96q8 631 8 1036q-12 94 -129 101h-26h-412z" />
<glyph unicode="&#x5e0;" horiz-adv-x="874" d="M82 2h739q2 741 2 807q0 102 -100 121h-469l22 -178h187q53 0 53 -72v-506h-434v-172z" />
<glyph unicode="&#x5e1;" horiz-adv-x="1122" d="M82 930l39 -178l155 -750h488q74 0 131 78q51 66 70 156l96 518q10 172 -111 176h-868zM416 752h264q84 0 72 -76q-25 -172 -54 -377q-20 -125 -82 -125h-79z" />
<glyph unicode="&#x5e2;" horiz-adv-x="1122" d="M82 2h682q74 0 131 78q47 66 70 156l96 518q10 172 -111 176h-162l-94 -631q-16 -125 -73 -125h-84l-164 756h-291l158 -756h-158v-172z" />
<glyph unicode="&#x5e3;" horiz-adv-x="1015" d="M82 930l22 -178h25v-359h340v189h-61v170h194q57 0 57 -72v-506v-477h220q86 0 86 96v1016q0 121 -101 121h-782z" />
<glyph unicode="&#x5e4;" horiz-adv-x="1017" d="M82 2h885v807q0 121 -121 121h-764l22 -178h25v-359h340v189h-61v170h194q57 0 57 -70v-508h-577v-172z" />
<glyph unicode="&#x5e5;" horiz-adv-x="968" d="M82 739l530 -616v-426h191q115 0 115 96v381l-154 193q154 104 154 223v239q0 100 -101 101h-239v-176h57v-232l-344 408h-209v-191z" />
<glyph unicode="&#x5e6;" horiz-adv-x="968" d="M82 2h836v172l-152 193q152 104 152 223v239q0 100 -101 101h-239v-176h57v-232l-344 408h-209v-191l448 -565h-448v-172z" />
<glyph unicode="&#x5e7;" horiz-adv-x="1159" d="M82 930l29 -178h583q86 0 76 -76q-61 -397 -57 -377q-18 -125 -78 -125h-94v-172h237q74 0 131 78q51 66 70 156l96 518q33 176 -108 176h-885zM133 -303h203q86 0 86 96v850h-289v-946z" />
<glyph unicode="&#x5e8;" horiz-adv-x="1011" d="M82 930l22 -178q106 -4 240 -4q162 4 240 4q68 0 67 -76v-674h305q4 158 5 408q-4 330 -5 409q0 47 -38 78q-39 33 -91 33h-745z" />
<glyph unicode="&#x5e9;" horiz-adv-x="1413" d="M82 930q25 -176 80 -465q63 -342 82 -463h665q229 0 342 277q57 139 111 651h-297q-57 -477 -100 -598q-57 -158 -220 -158h-237l-131 756h-295zM569 299h187q80 0 100 86q8 33 8 137v408h-295v-631z" />
<glyph unicode="&#x5ea;" horiz-adv-x="1112" d="M82 2h434v750h182q57 0 58 -72v-678h305v807q0 102 -100 121h-879l22 -178l125 -4v-574h-147v-172z" />
<glyph unicode="&#x5f3;" horiz-adv-x="413" d="M82 780h280v193q0 96 -4 108q-10 39 -47 39h-178q-33 0 -43 -39q-4 -14 -8 -108v-193z" />
<glyph unicode="&#x5f4;" horiz-adv-x="817" d="M82 780h280v193q0 96 -4 108q-10 39 -47 39h-178q-33 0 -43 -39q-4 -14 -8 -108v-193zM483 780h283v193q-2 94 -6 108q-10 39 -47 39h-178q-33 0 -43 -39q-4 -14 -9 -108v-193z" />
<glyph unicode="&#x2000;" horiz-adv-x="792" />
<glyph unicode="&#x2001;" horiz-adv-x="1585" />
<glyph unicode="&#x2002;" horiz-adv-x="792" />
<glyph unicode="&#x2003;" horiz-adv-x="1585" />
<glyph unicode="&#x2004;" horiz-adv-x="528" />
<glyph unicode="&#x2005;" horiz-adv-x="396" />
<glyph unicode="&#x2006;" horiz-adv-x="264" />
<glyph unicode="&#x2007;" horiz-adv-x="264" />
<glyph unicode="&#x2008;" horiz-adv-x="198" />
<glyph unicode="&#x2009;" horiz-adv-x="317" />
<glyph unicode="&#x200a;" horiz-adv-x="88" />
<glyph unicode="&#x2010;" horiz-adv-x="917" d="M82 328h784v262h-784v-262z" />
<glyph unicode="&#x2011;" horiz-adv-x="917" d="M82 328h784v262h-784v-262z" />
<glyph unicode="&#x2012;" horiz-adv-x="917" d="M82 328h784v262h-784v-262z" />
<glyph unicode="&#x2013;" horiz-adv-x="1157" d="M82 328h1024v262h-1024v-262z" />
<glyph unicode="&#x2014;" horiz-adv-x="2181" d="M82 328h2048v262h-2048v-262z" />
<glyph unicode="&#x2018;" horiz-adv-x="413" d="M82 780h280v193q0 96 -4 108q-10 39 -47 39h-178q-33 0 -43 -39q-4 -14 -8 -108v-193z" />
<glyph unicode="&#x2019;" horiz-adv-x="413" d="M82 780h280v193q0 96 -4 108q-10 39 -47 39h-178q-33 0 -43 -39q-4 -14 -8 -108v-193z" />
<glyph unicode="&#x201c;" horiz-adv-x="817" d="M82 780h280v193q0 96 -4 108q-10 39 -47 39h-178q-33 0 -43 -39q-4 -14 -8 -108v-193zM483 780h283v193q-2 94 -6 108q-10 39 -47 39h-178q-33 0 -43 -39q-4 -14 -9 -108v-193z" />
<glyph unicode="&#x201d;" horiz-adv-x="817" d="M82 780h280v193q0 96 -4 108q-10 39 -47 39h-178q-33 0 -43 -39q-4 -14 -8 -108v-193zM483 780h283v193q-2 94 -6 108q-10 39 -47 39h-178q-33 0 -43 -39q-4 -14 -9 -108v-193z" />
<glyph unicode="&#x202f;" horiz-adv-x="317" />
<glyph unicode="&#x205f;" horiz-adv-x="396" />
<glyph unicode="&#xe000;" horiz-adv-x="1024" d="M0 0z" />
</font>
</defs>
</svg>
